<?xml version="1.0" encoding="UTF-8"?>
<svg version="1.1" xmlns="http://www.w3.org/2000/svg" width="600" height="480">
<path d="M0 0 C3.22369833 -0.04569675 6.43303174 0.00756746 9.65625 0.08203125 C10.77894287 0.09290771 10.77894287 0.09290771 11.92431641 0.10400391 C46.38915214 0.50092472 81.34779537 9.72261578 110.65625 28.08203125 C111.64625 28.68144531 112.63625 29.28085938 113.65625 29.8984375 C125.93788009 37.46013262 125.93788009 37.46013262 127.58203125 43.4609375 C127.73995153 44.85248176 127.86625548 46.24781041 127.96875 47.64453125 C128.07364746 48.82426514 128.07364746 48.82426514 128.18066406 50.02783203 C128.86067572 59.15104261 128.86654738 68.31297044 128.90625 77.45703125 C128.9116983 78.22935089 128.91714661 79.00167053 128.92276001 79.7973938 C128.97325344 89.44189457 128.48737701 98.58227779 126.65625 108.08203125 C127.4083374 108.07679443 128.1604248 108.07155762 128.93530273 108.06616211 C132.32144342 108.04545898 135.70757084 108.03239248 139.09375 108.01953125 C140.27775391 108.01115234 141.46175781 108.00277344 142.68164062 107.99414062 C143.80634766 107.99091797 144.93105469 107.98769531 146.08984375 107.984375 C147.13197021 107.97913818 148.17409668 107.97390137 149.24780273 107.96850586 C151.65625 108.08203125 151.65625 108.08203125 152.65625 109.08203125 C152.89353814 115.60745498 152.89353814 115.60745498 151.65625 118.08203125 C143.07625 118.08203125 134.49625 118.08203125 125.65625 118.08203125 C124.99625 122.04203125 124.33625 126.00203125 123.65625 130.08203125 C122.93953423 132.93632038 122.20417794 135.7139669 121.34375 138.51953125 C121.12936279 139.23471924 120.91497559 139.94990723 120.6940918 140.68676758 C118.97220135 146.31503634 116.96692861 151.78871602 114.76953125 157.25 C113.62387811 160.16438079 112.63629112 163.10847693 111.65625 166.08203125 C112.42936523 166.07695557 113.20248047 166.07187988 113.99902344 166.06665039 C122.31103391 166.03621029 130.60023406 166.21409598 138.90625 166.51953125 C140.12699219 166.55884766 141.34773438 166.59816406 142.60546875 166.63867188 C143.76175781 166.68056641 144.91804688 166.72246094 146.109375 166.765625 C147.67413574 166.82061157 147.67413574 166.82061157 149.27050781 166.87670898 C151.65625 167.08203125 151.65625 167.08203125 152.65625 168.08203125 C152.89353814 174.60745498 152.89353814 174.60745498 151.65625 177.08203125 C136.14625 177.08203125 120.63625 177.08203125 104.65625 177.08203125 C103.99625 178.73203125 103.33625 180.38203125 102.65625 182.08203125 C98.53516214 189.3082047 93.61682526 195.95460062 88.57421875 202.55078125 C87.2096842 204.35163336 85.90955613 206.20207205 84.65625 208.08203125 C83.99625 208.08203125 83.33625 208.08203125 82.65625 208.08203125 C82.39070312 208.66339844 82.12515625 209.24476563 81.8515625 209.84375 C78.24246297 216.60196579 71.78007479 222.57714865 65.65625 227.08203125 C64.99625 227.08203125 64.33625 227.08203125 63.65625 227.08203125 C63.32625 228.07203125 62.99625 229.06203125 62.65625 230.08203125 C60.51171875 232.08984375 60.51171875 232.08984375 57.84375 234.20703125 C56.97105469 234.91085937 56.09835937 235.6146875 55.19921875 236.33984375 C52.88862178 237.92283338 51.38559148 238.66213256 48.65625 239.08203125 C48.65625 239.74203125 48.65625 240.40203125 48.65625 241.08203125 C47.22607422 242.19189453 47.22607422 242.19189453 45.2109375 243.40234375 C44.47037109 243.8514209 43.72980469 244.30049805 42.96679688 244.76318359 C42.16306641 245.23965332 41.35933594 245.71612305 40.53125 246.20703125 C39.71462891 246.69768066 38.89800781 247.18833008 38.05664062 247.69384766 C35.59575548 249.16682477 33.12788526 250.62717595 30.65625 252.08203125 C29.9746582 252.48357422 29.29306641 252.88511719 28.59082031 253.29882812 C24.64196729 255.61402377 20.6631219 257.86823452 16.65625 260.08203125 C15.7075 260.61054688 14.75875 261.1390625 13.78125 261.68359375 C12.915 262.14507812 12.04875 262.6065625 11.15625 263.08203125 C10.4240625 263.47390625 9.691875 263.86578125 8.9375 264.26953125 C4.07738057 266.00053269 0.64835242 265.25137513 -3.91796875 263.140625 C-5.6295725 262.28107144 -7.33377325 261.40665718 -9.03125 260.51953125 C-9.92320068 260.06280029 -10.81515137 259.60606934 -11.73413086 259.13549805 C-18.18346679 255.79185491 -24.31596456 252.13620307 -30.34375 248.08203125 C-32.11418068 246.99804001 -33.88502804 245.91472907 -35.65625 244.83203125 C-44.68360158 239.08146582 -53.45866332 232.44860283 -60.8125 224.64453125 C-63.06447796 222.34659456 -65.55108713 220.3552663 -68.05859375 218.34375 C-68.48269531 217.92738281 -68.90679687 217.51101563 -69.34375 217.08203125 C-69.34375 216.42203125 -69.34375 215.76203125 -69.34375 215.08203125 C-70.00375 215.08203125 -70.66375 215.08203125 -71.34375 215.08203125 C-72.8515625 213.62109375 -72.8515625 213.62109375 -74.46875 211.70703125 C-75.00757813 211.08054687 -75.54640625 210.4540625 -76.1015625 209.80859375 C-77.34375 208.08203125 -77.34375 208.08203125 -77.34375 206.08203125 C-78.00375 206.08203125 -78.66375 206.08203125 -79.34375 206.08203125 C-80.57714844 204.68017578 -80.57714844 204.68017578 -81.953125 202.71484375 C-82.45803467 201.998125 -82.96294434 201.28140625 -83.4831543 200.54296875 C-84.01465088 199.77210938 -84.54614746 199.00125 -85.09375 198.20703125 C-85.63362549 197.43359375 -86.17350098 196.66015625 -86.72973633 195.86328125 C-90.13699765 190.94390954 -93.38043389 185.96487235 -96.35546875 180.76953125 C-97.23239543 179.10911104 -97.23239543 179.10911104 -98.34375 178.08203125 C-99.78559293 177.959816 -101.23318144 177.90430367 -102.67993164 177.87670898 C-103.6008107 177.85676376 -104.52168976 177.83681854 -105.47047424 177.81626892 C-106.47150681 177.79955643 -107.47253937 177.78284393 -108.50390625 177.765625 C-109.52350937 177.7448439 -110.54311249 177.72406281 -111.59361267 177.70265198 C-114.86442048 177.63704273 -118.13531137 177.57821891 -121.40625 177.51953125 C-123.61784728 177.47635683 -125.82943603 177.43274291 -128.04101562 177.38867188 C-133.47517151 177.28134985 -138.90941082 177.17960502 -144.34375 177.08203125 C-144.37064216 175.60296233 -144.39009621 174.12375642 -144.40625 172.64453125 C-144.42365234 171.40896484 -144.42365234 171.40896484 -144.44140625 170.1484375 C-144.34375 168.08203125 -144.34375 168.08203125 -143.34375 167.08203125 C-140.4594118 166.99337917 -137.59912842 166.96681829 -134.71484375 166.984375 C-133.41849754 166.98649742 -133.41849754 166.98649742 -132.09596252 166.98866272 C-129.32435708 166.99427886 -126.5528312 167.00683406 -123.78125 167.01953125 C-121.9069022 167.02454417 -120.03255315 167.02910744 -118.15820312 167.03320312 C-113.55335456 167.04425353 -108.94856579 167.06152895 -104.34375 167.08203125 C-104.55473328 166.48780365 -104.76571655 165.89357605 -104.98309326 165.28134155 C-118.34375 127.62803893 -118.34375 127.62803893 -118.34375 118.08203125 C-126.92375 118.08203125 -135.50375 118.08203125 -144.34375 118.08203125 C-144.34375 114.78203125 -144.34375 111.48203125 -144.34375 108.08203125 C-136.42375 107.75203125 -128.50375 107.42203125 -120.34375 107.08203125 C-120.67375 104.44203125 -121.00375 101.80203125 -121.34375 99.08203125 C-121.42664596 97.50843651 -121.4806906 95.9326883 -121.48901367 94.35693359 C-121.49539352 93.52181244 -121.50177338 92.68669128 -121.50834656 91.82626343 C-121.50945938 90.94902618 -121.5105722 90.07178894 -121.51171875 89.16796875 C-121.51504715 88.23586578 -121.51837555 87.30376282 -121.52180481 86.34341431 C-121.52684362 84.37852467 -121.52921408 82.41362656 -121.52905273 80.44873047 C-121.53122835 77.48650504 -121.54938697 74.5246592 -121.56835938 71.5625 C-121.66003515 43.68661925 -121.66003515 43.68661925 -116.87817383 38.30957031 C-107.1404727 29.75097431 -96.27957693 23.09507856 -84.34375 18.08203125 C-83.05192382 17.51989768 -81.76026827 16.9573719 -80.46875 16.39453125 C-54.70642376 5.30793878 -27.94773308 0.68563364 0 0 Z " fill="#E37858" transform="translate(296.34375,106.91796875)"/>
<path d="M0 0 C2.77834684 1.38917342 2.99642986 2.95763553 4.125 5.8125 C4.47820312 6.68519531 4.83140625 7.55789063 5.1953125 8.45703125 C6 11 6 11 6 15 C76.62 15 147.24 15 220 15 C220.33 14.01 220.66 13.02 221 12 C221 13.32 221 14.64 221 16 C221.77311523 15.99492432 222.54623047 15.98984863 223.34277344 15.98461914 C231.65478391 15.95417904 239.94398406 16.13206473 248.25 16.4375 C249.47074219 16.47681641 250.69148438 16.51613281 251.94921875 16.55664062 C253.10550781 16.59853516 254.26179688 16.64042969 255.453125 16.68359375 C256.49629883 16.72025146 257.53947266 16.75690918 258.61425781 16.79467773 C261 17 261 17 262 18 C262.23728814 24.52542373 262.23728814 24.52542373 261 27 C245.49 27 229.98 27 214 27 C213.34 28.65 212.68 30.3 212 32 C207.87891214 39.22617345 202.96057526 45.87256937 197.91796875 52.46875 C196.5534342 54.26960211 195.25330613 56.1200408 194 58 C193.34 58 192.68 58 192 58 C191.73445312 58.58136719 191.46890625 59.16273438 191.1953125 59.76171875 C187.58621297 66.51993454 181.12382479 72.4951174 175 77 C174.34 77 173.68 77 173 77 C172.67 77.99 172.34 78.98 172 80 C169.85546875 82.0078125 169.85546875 82.0078125 167.1875 84.125 C166.31480469 84.82882812 165.44210937 85.53265625 164.54296875 86.2578125 C162.23237178 87.84080213 160.72934148 88.58010131 158 89 C158 89.66 158 90.32 158 91 C156.56982422 92.10986328 156.56982422 92.10986328 154.5546875 93.3203125 C153.81412109 93.76938965 153.07355469 94.2184668 152.31054688 94.68115234 C151.50681641 95.15762207 150.70308594 95.6340918 149.875 96.125 C149.05837891 96.61564941 148.24175781 97.10629883 147.40039062 97.61181641 C144.93950548 99.08479352 142.47163526 100.5451447 140 102 C139.3184082 102.40154297 138.63681641 102.80308594 137.93457031 103.21679688 C133.98571729 105.53199252 130.0068719 107.78620327 126 110 C125.05125 110.52851563 124.1025 111.05703125 123.125 111.6015625 C122.25875 112.06304687 121.3925 112.52453125 120.5 113 C119.7678125 113.391875 119.035625 113.78375 118.28125 114.1875 C113.42113057 115.91850144 109.99210242 115.16934388 105.42578125 113.05859375 C103.7141775 112.19904019 102.00997675 111.32462593 100.3125 110.4375 C99.42054932 109.98076904 98.52859863 109.52403809 97.60961914 109.0534668 C91.16028321 105.70982366 85.02778544 102.05417182 79 98 C77.22956932 96.91600876 75.45872196 95.83269782 73.6875 94.75 C64.66014842 88.99943457 55.88508668 82.36657158 48.53125 74.5625 C46.27927204 72.26456331 43.79266287 70.27323505 41.28515625 68.26171875 C40.64900391 67.63716797 40.64900391 67.63716797 40 67 C40 66.34 40 65.68 40 65 C39.34 65 38.68 65 38 65 C36.4921875 63.5390625 36.4921875 63.5390625 34.875 61.625 C34.33617187 60.99851562 33.79734375 60.37203125 33.2421875 59.7265625 C32 58 32 58 32 56 C31.34 56 30.68 56 30 56 C28.76660156 54.59814453 28.76660156 54.59814453 27.390625 52.6328125 C26.88571533 51.91609375 26.38080566 51.199375 25.8605957 50.4609375 C25.32909912 49.69007813 24.79760254 48.91921875 24.25 48.125 C23.71012451 47.3515625 23.17024902 46.578125 22.61401367 45.78125 C19.20675235 40.86187829 15.96331611 35.8828411 12.98828125 30.6875 C12.11135457 29.02707979 12.11135457 29.02707979 11 28 C9.55815707 27.87778475 8.11056856 27.82227242 6.66381836 27.79467773 C5.7429393 27.77473251 4.82206024 27.75478729 3.87327576 27.73423767 C2.87224319 27.71752518 1.87121063 27.70081268 0.83984375 27.68359375 C-0.17975937 27.66281265 -1.19936249 27.64203156 -2.24986267 27.62062073 C-5.52067048 27.55501148 -8.79156137 27.49618766 -12.0625 27.4375 C-14.27409728 27.39432558 -16.48568603 27.35071166 -18.69726562 27.30664062 C-24.13142151 27.1993186 -29.56566082 27.09757377 -35 27 C-35.02689216 25.52093108 -35.04634621 24.04172517 -35.0625 22.5625 C-35.07410156 21.73878906 -35.08570313 20.91507812 -35.09765625 20.06640625 C-35 18 -35 18 -34 17 C-31.1156618 16.91134792 -28.25537842 16.88478704 -25.37109375 16.90234375 C-24.07474754 16.90446617 -24.07474754 16.90446617 -22.75221252 16.90663147 C-19.98060708 16.91224761 -17.2090812 16.92480281 -14.4375 16.9375 C-12.5631522 16.94251292 -10.68880315 16.94707619 -8.81445312 16.95117188 C-4.20960456 16.96222228 0.39518421 16.9794977 5 17 C4.45859375 15.66195313 4.45859375 15.66195313 3.90625 14.296875 C3.4421875 13.12640625 2.978125 11.9559375 2.5 10.75 C2.0359375 9.58984375 1.571875 8.4296875 1.09375 7.234375 C0 4 0 4 0 0 Z " fill="#E38063" transform="translate(187,257)"/>
<path d="M0 0 C0.350625 0.721875 0.70125 1.44375 1.0625 2.1875 C4.13810953 6.65209447 7.86410463 8.43690141 13 10 C21.57285986 11.08352627 29.48392389 10.94695654 37.13671875 6.4453125 C39.50196948 4.61063164 40.88812186 2.77969535 42 0 C45.96304357 0.69588609 49.64578918 1.81402819 53.453125 3.109375 C55.32738159 3.7425061 55.32738159 3.7425061 57.23950195 4.38842773 C57.89391266 4.61070038 58.54832336 4.83297302 59.2225647 5.0619812 C72.19668319 9.47412815 72.19668319 9.47412815 85.3125 13.4375 C91.03732308 15.08509609 96.7096616 16.85374839 102.359375 18.7421875 C103.10529404 18.99026657 103.85121307 19.23834564 104.61973572 19.49394226 C112.08531514 21.9795461 119.54392219 24.48605569 127 27 C127.03406003 28.41519433 127.0581346 29.83063077 127.078125 31.24609375 C127.09262695 32.0342749 127.10712891 32.82245605 127.12207031 33.63452148 C126.92490796 37.45513354 125.57943195 40.5595852 124 44 C123.74476563 44.63550781 123.48953125 45.27101562 123.2265625 45.92578125 C118.73961919 56.19635332 109.21156847 64.85895436 100 71 C96.8125 71.125 96.8125 71.125 94 71 C95.44161985 67.53252489 97.19026587 65.85813698 100.125 63.5625 C107.31780836 57.36901558 112.28888778 49.07337055 115 40 C114.57589844 40.70125 114.15179688 41.4025 113.71484375 42.125 C107.37492441 52.38034205 100.31014747 62.35890272 88.6328125 66.92578125 C84.77683183 67.034481 82.16650199 65.22568073 79 63.25 C78.39671875 62.8890625 77.7934375 62.528125 77.171875 62.15625 C75.44005522 61.11715813 73.7197626 60.0589279 72 59 C69.525 57.515 69.525 57.515 67 56 C67.99 67.385 67.99 67.385 69 79 C101.67 79 134.34 79 168 79 C168 81.64 168 84.28 168 87 C70.98 87 -26.04 87 -126 87 C-126 84.69 -126 82.38 -126 80 C-93.33 80 -60.66 80 -27 80 C-27 77.69 -27 75.38 -27 73 C-26.73018383 70.4118604 -26.41708973 67.82789323 -26.0625 65.25 C-25.88847656 63.95578125 -25.71445313 62.6615625 -25.53515625 61.328125 C-25 58 -25 58 -24 55 C-24.57967529 55.36875244 -25.15935059 55.73750488 -25.7565918 56.11743164 C-28.39085731 57.78119214 -31.038742 59.42191979 -33.6875 61.0625 C-34.59951172 61.64322266 -35.51152344 62.22394531 -36.45117188 62.82226562 C-37.33740234 63.36689453 -38.22363281 63.91152344 -39.13671875 64.47265625 C-39.94842529 64.98062744 -40.76013184 65.48859863 -41.59643555 66.01196289 C-44.5522988 67.22703436 -45.98991379 66.95680524 -49 66 C-60.85799051 59.28047205 -68.52047852 48.71395844 -75 37 C-68.9899932 49.72248193 -63.11977189 60.01753491 -52 69 C-52.33 69.66 -52.66 70.32 -53 71 C-56.1735768 71.32187523 -57.67966554 71.19827776 -60.4296875 69.49609375 C-62.97511495 67.35321793 -65.50894171 65.20603124 -68 63 C-68.65742188 62.42636719 -69.31484375 61.85273438 -69.9921875 61.26171875 C-77.68474457 54.09909339 -84.10191208 43.3435265 -85.2421875 32.75 C-85.25 30.8125 -85.25 30.8125 -85 28 C-76.98211762 24.64221542 -68.80814393 21.84865121 -60.55859375 19.12109375 C-59.18188299 18.66343777 -57.80526217 18.20551115 -56.4287262 17.74732971 C-52.83121534 16.55068309 -49.23251963 15.35764087 -45.63354492 14.16540527 C-41.9873959 12.95684571 -38.34237551 11.74489242 -34.69726562 10.53320312 C-28.18931408 8.37030832 -21.68122198 6.20784509 -15.16964722 4.05587769 C-13.18241135 3.39388666 -11.19809547 2.72299187 -9.21829224 2.03909302 C-3.30131116 0 -3.30131116 0 0 0 Z " fill="#361F43" transform="translate(279,137)"/>
<path d="M0 0 C79.2 0 158.4 0 240 0 C240 6.67624492 239.75666103 11.17342306 237.8125 17.25 C237.58981445 17.97582275 237.36712891 18.70164551 237.13769531 19.44946289 C234.85686409 26.74220481 232.42083389 34.15833223 229 41 C228.34 41 227.68 41 227 41 C227 41.99 227 42.98 227 44 C156.38 44 85.76 44 13 44 C11.35 39.38 9.7 34.76 8 30 C7.34 29.67 6.68 29.34 6 29 C3 21 3 21 0 0 Z " fill="#E57755" transform="translate(180,228)"/>
<path d="M0 0 C97.02 0 194.04 0 294 0 C294 2.31 294 4.62 294 7 C263.97 7 233.94 7 203 7 C203.99 11.455 203.99 11.455 205 16 C205.27160411 18.87234159 205.49565143 21.68718899 205.625 24.5625 C205.66367187 25.28501953 205.70234375 26.00753906 205.7421875 26.75195312 C205.83485005 28.50095875 205.91842552 30.25044216 206 32 C182.4243994 47.0482557 156.67227279 54.96515553 128.4375 50.38671875 C113.41792063 46.94977871 99.36476905 40.11598659 87 31 C87.47337332 27.37421866 87.95467791 23.74953422 88.4375 20.125 C88.63956055 18.57619141 88.63956055 18.57619141 88.84570312 16.99609375 C89.04389648 15.51689453 89.04389648 15.51689453 89.24609375 14.0078125 C89.36654053 13.09660645 89.4869873 12.18540039 89.61108398 11.24658203 C90 9 90 9 91 7 C60.97 7 30.94 7 0 7 C0 4.69 0 2.38 0 0 Z " fill="#351F44" transform="translate(153,276)"/>
<path d="M0 0 C7.59 0 15.18 0 23 0 C23.33 1.32 23.66 2.64 24 4 C24.763125 3.34 25.52625 2.68 26.3125 2 C30.83887567 -1.00328243 35.77527784 -0.78521836 41 0 C43.69219472 1.07687789 45.61532386 2.3042303 48 4 C48.33 2.68 48.66 1.36 49 0 C51.56278699 -0.05420701 54.12441483 -0.09377007 56.6875 -0.125 C57.40873047 -0.14175781 58.12996094 -0.15851563 58.87304688 -0.17578125 C63.04876781 -0.21391569 66.2494138 0.1210081 70 2 C70.33 1.34 70.66 0.68 71 0 C81.23 0 91.46 0 102 0 C102.99 2.31 103.98 4.62 105 7 C105.99 4.69 106.98 2.38 108 0 C114.29874903 -0.07623218 120.59737851 -0.1286762 126.89648438 -0.16479492 C129.03813117 -0.17985641 131.17974724 -0.20030972 133.32128906 -0.22631836 C136.40437411 -0.26281728 139.48705038 -0.27975302 142.5703125 -0.29296875 C143.52366486 -0.30845261 144.47701721 -0.32393646 145.45925903 -0.33988953 C150.72591583 -0.3412148 154.47471992 -0.01610767 159 3 C162.25972969 7.41640797 162.17487158 10.75892086 161.421875 15.94921875 C161 18 161 18 160 21 C160.98103173 23.23535829 160.98103173 23.23535829 162.4375 25.5 C165 29.6893733 165 29.6893733 165 33 C162.87561661 33.08078641 160.7503677 33.13909141 158.625 33.1875 C157.44164062 33.22230469 156.25828125 33.25710938 155.0390625 33.29296875 C153.53472656 33.14794922 153.53472656 33.14794922 152 33 C151.34 32.01 150.68 31.02 150 30 C149.67 30.99 149.34 31.98 149 33 C138.11 33 127.22 33 116 33 C115.505 27.06 115.505 27.06 115 21 C113.68 24.96 112.36 28.92 111 33 C107.37 33 103.74 33 100 33 C98.68 29.7 97.36 26.4 96 23 C95.67 26.3 95.34 29.6 95 33 C90.62178091 33.0740719 86.24389218 33.12856375 81.86523438 33.16479492 C80.37526091 33.179896 78.88533199 33.20037858 77.39550781 33.22631836 C75.2557477 33.26264584 73.11657434 33.27971221 70.9765625 33.29296875 C69.68830566 33.3086792 68.40004883 33.32438965 67.07275391 33.34057617 C66.05874512 33.22818604 65.04473633 33.1157959 64 33 C63.34 32.01 62.68 31.02 62 30 C61.505 31.485 61.505 31.485 61 33 C57.04 33 53.08 33 49 33 C48.67 31.35 48.34 29.7 48 28 C47.236875 28.639375 46.47375 29.27875 45.6875 29.9375 C40.8610216 33.64154156 35.87855952 33.66843434 30 33 C26.04877398 30.98846676 23.29150648 28.81917747 21 25 C21 24.34 21 23.68 21 23 C18.36 23 15.72 23 13 23 C13 26.3 13 29.6 13 33 C8.71 33 4.42 33 0 33 C0 22.11 0 11.22 0 0 Z " fill="#F5F1F1" transform="translate(219,233)"/>
<path d="M0 0 C0.33 0 0.66 0 1 0 C1.02717692 2.06242617 1.0464758 4.12495703 1.0625 6.1875 C1.07410156 7.33605469 1.08570313 8.48460937 1.09765625 9.66796875 C1 13 1 13 0.50219727 15.24804688 C-0.12014701 18.6583846 -0.12979594 21.89617105 -0.1328125 25.36328125 C-0.13376923 26.07292526 -0.13472595 26.78256927 -0.13571167 27.51371765 C-0.1363906 29.0173654 -0.13455637 30.52101612 -0.13037109 32.0246582 C-0.12510644 34.26716165 -0.13027978 36.50945661 -0.13671875 38.75195312 C-0.14076725 48.54487533 0.30260636 58.23095423 1 68 C-7.25 68 -15.5 68 -24 68 C-24 70.64 -24 73.28 -24 76 C73.02 76 170.04 76 270 76 C270 73.36 270 70.72 270 68 C261.75 68 253.5 68 245 68 C245.33 66.68 245.66 65.36 246 64 C246 64.99 246 65.98 246 67 C246.7520874 66.99476318 247.5041748 66.98952637 248.27905273 66.98413086 C251.66519342 66.96342773 255.05132084 66.95036123 258.4375 66.9375 C259.62150391 66.92912109 260.80550781 66.92074219 262.02539062 66.91210938 C263.15009766 66.90888672 264.27480469 66.90566406 265.43359375 66.90234375 C266.47572021 66.89710693 267.51784668 66.89187012 268.59155273 66.88647461 C271 67 271 67 272 68 C272.23728814 74.52542373 272.23728814 74.52542373 271 77 C262.42 77 253.84 77 245 77 C244.67 79.31 244.34 81.62 244 84 C243.67 82.68 243.34 81.36 243 80 C163.8 80 84.6 80 3 80 C3.99 83.96 4.98 87.92 6 92 C5.67 93.32 5.34 94.64 5 96 C4.5101645 94.52433205 4.0338408 93.04417897 3.5625 91.5625 C3.29566406 90.73878906 3.02882812 89.91507812 2.75390625 89.06640625 C1.78353054 85.11954131 1.44883823 81.03954405 1 77 C-7.58 77 -16.16 77 -25 77 C-25 73.7 -25 70.4 -25 67 C-17.08 66.67 -9.16 66.34 -1 66 C-1.33 63.36 -1.66 60.72 -2 58 C-2.08289596 56.42640526 -2.1369406 54.85065705 -2.14526367 53.27490234 C-2.15164352 52.43978119 -2.15802338 51.60466003 -2.16459656 50.74423218 C-2.16570938 49.86699493 -2.1668222 48.98975769 -2.16796875 48.0859375 C-2.17129715 47.15383453 -2.17462555 46.22173157 -2.17805481 45.26138306 C-2.18309362 43.29649342 -2.18546408 41.33159531 -2.18530273 39.36669922 C-2.18747835 36.40447379 -2.20563697 33.44262795 -2.22460938 30.48046875 C-2.25430027 20.1251992 -1.93244728 10.20638726 0 0 Z " fill="#FFFFFF" transform="translate(177,148)"/>
<path d="M0 0 C2.77834684 1.38917342 2.99642986 2.95763553 4.125 5.8125 C4.47820312 6.68519531 4.83140625 7.55789063 5.1953125 8.45703125 C6 11 6 11 6 15 C76.62 15 147.24 15 220 15 C220.33 14.01 220.66 13.02 221 12 C221 13.32 221 14.64 221 16 C221.77311523 15.99492432 222.54623047 15.98984863 223.34277344 15.98461914 C231.65478391 15.95417904 239.94398406 16.13206473 248.25 16.4375 C249.47074219 16.47681641 250.69148438 16.51613281 251.94921875 16.55664062 C253.10550781 16.59853516 254.26179688 16.64042969 255.453125 16.68359375 C256.49629883 16.72025146 257.53947266 16.75690918 258.61425781 16.79467773 C261 17 261 17 262 18 C262.23728814 24.52542373 262.23728814 24.52542373 261 27 C245.49 27 229.98 27 214 27 C213.34 28.65 212.68 30.3 212 32 C211.67 31.34 211.34 30.68 211 30 C211.66 28.68 212.32 27.36 213 26 C228.51 26 244.02 26 260 26 C260 23.36 260 20.72 260 18 C162.98 18 65.96 18 -34 18 C-34 17.67 -34 17.34 -34 17 C-21.13 17 -8.26 17 5 17 C3.35 12.71 1.7 8.42 0 4 C0 2.68 0 1.36 0 0 Z " fill="#FEFDFD" transform="translate(187,257)"/>
<path d="M0 0 C1.98 0 3.96 0 6 0 C5.68957083 2.87523714 5.37672481 5.75017727 5.0625 8.625 C4.97548828 9.43324219 4.88847656 10.24148438 4.79882812 11.07421875 C4.32290463 15.41041058 3.77162811 19.70390836 3 24 C28.80892007 40.2661261 54.57199378 47.65544668 85 41 C95.75311662 38.02512897 108.32656076 33.02809129 117.265625 26.29296875 C119 25 119 25 121 25 C120.01 16.75 119.02 8.5 118 0 C119.98 0 121.96 0 124 0 C126.1856843 21.91929109 126.1856843 21.91929109 122.88378906 28.08398438 C119.8778832 31.40211264 116.1307135 33.29064205 112.07470703 35.07617188 C109.96580923 36.01522451 107.97986205 37.07796305 105.96484375 38.203125 C85.84232427 49.2205093 61.25074894 52.98621913 38.75 47.5 C26.76149294 43.57320891 15.29101878 37.23991271 5 30 C4.13697266 29.43152344 3.27394531 28.86304688 2.38476562 28.27734375 C0 26 0 26 -0.56762695 23.15917969 C-0.54144287 22.09086914 -0.51525879 21.02255859 -0.48828125 19.921875 C-0.47216797 18.76171875 -0.45605469 17.6015625 -0.43945312 16.40625 C-0.39755859 15.1996875 -0.35566406 13.993125 -0.3125 12.75 C-0.28994141 11.52796875 -0.26738281 10.3059375 -0.24414062 9.046875 C-0.18521758 6.03001498 -0.10299265 3.01562485 0 0 Z " fill="#F7F3F3" transform="translate(238,283)"/>
<path d="M0 0 C-0.66 0.33 -1.32 0.66 -2 1 C-4.52206948 -0.08619189 -6.97011376 -1.23724468 -9.4375 -2.4375 C-26.13959146 -10.20080912 -44.73624589 -15.56605281 -63 -18 C-63.74217773 -18.10006348 -64.48435547 -18.20012695 -65.24902344 -18.30322266 C-107.15857907 -23.71888563 -151.46193919 -19.02839332 -189.55859375 -0.00390625 C-190.36425781 0.32738281 -191.16992188 0.65867188 -192 1 C-192.66 0.67 -193.32 0.34 -194 0 C-137.06097021 -34.35427496 -56.71702 -37.21306587 0 0 Z " fill="#FDF5F3" transform="translate(397,141)"/>
<path d="M0 0 C2.93195847 2.91481252 5.83427777 5.85466037 8.71484375 8.8203125 C17.32557373 17.63236147 25.99851022 25.79812747 36 33 C36.55768066 33.41266113 37.11536133 33.82532227 37.68994141 34.25048828 C48.42990018 42.14778825 68.26479439 56.69211888 81.84765625 55.81640625 C85.54702505 54.85832932 88.96346125 53.50180074 92.4375 51.9375 C93.13343262 51.62659424 93.82936523 51.31568848 94.54638672 50.99536133 C119.03259842 39.89217855 138.3314731 24.17232523 157 5 C157 9.16951918 155.27042164 10.19414465 152.4375 13.1875 C149.34384072 16.48493324 146.29093963 19.79281867 143.375 23.25 C128.73583679 39.99015422 103.48255973 58.40842319 81.36303711 62.89746094 C76.84100432 63.09368511 73.21298478 61.11304852 69.25 59.125 C68.37311523 58.70516846 67.49623047 58.28533691 66.59277344 57.8527832 C44.47309045 47.07157324 23.47237104 31.26310195 8 12 C6.9171875 10.69675781 6.9171875 10.69675781 5.8125 9.3671875 C0 2.28320312 0 2.28320312 0 0 Z " fill="#FDF5F2" transform="translate(219,298)"/>
<path d="M0 0 C3.12177233 1.68287927 5.39137035 3.7827407 7 7 C7.40527925 11.83996945 7.59232881 16.4204565 5.875 21 C2.51473941 24.58427796 -0.66252181 25.83281523 -5.5 26.4375 C-10.64442984 25.79444627 -13.53772194 23.70599107 -16.875 19.8125 C-18.47936151 15.80159623 -18.68251468 12.26009163 -18 8 C-13.99990071 0.1426621 -8.3981325 -1.33576596 0 0 Z " fill="#3C274A" transform="translate(260,236)"/>
<path d="M0 0 C0.33 0 0.66 0 1 0 C1.02717692 2.06242617 1.0464758 4.12495703 1.0625 6.1875 C1.07410156 7.33605469 1.08570313 8.48460937 1.09765625 9.66796875 C1 13 1 13 0.50219727 15.24804688 C-0.12014701 18.6583846 -0.12979594 21.89617105 -0.1328125 25.36328125 C-0.13376923 26.07292526 -0.13472595 26.78256927 -0.13571167 27.51371765 C-0.1363906 29.0173654 -0.13455637 30.52101612 -0.13037109 32.0246582 C-0.12510644 34.26716165 -0.13027978 36.50945661 -0.13671875 38.75195312 C-0.14076725 48.54487533 0.30260636 58.23095423 1 68 C-7.25 68 -15.5 68 -24 68 C-24 70.64 -24 73.28 -24 76 C-15.09 76 -6.18 76 3 76 C3 76.99 3 77.98 3 79 C82.2 79 161.4 79 243 79 C243 78.01 243 77.02 243 76 C251.91 76 260.82 76 270 76 C270 73.36 270 70.72 270 68 C261.75 68 253.5 68 245 68 C245.33 66.68 245.66 65.36 246 64 C246 64.99 246 65.98 246 67 C246.7520874 66.99476318 247.5041748 66.98952637 248.27905273 66.98413086 C251.66519342 66.96342773 255.05132084 66.95036123 258.4375 66.9375 C259.62150391 66.92912109 260.80550781 66.92074219 262.02539062 66.91210938 C263.15009766 66.90888672 264.27480469 66.90566406 265.43359375 66.90234375 C266.47572021 66.89710693 267.51784668 66.89187012 268.59155273 66.88647461 C271 67 271 67 272 68 C272.23728814 74.52542373 272.23728814 74.52542373 271 77 C262.42 77 253.84 77 245 77 C244.67 79.31 244.34 81.62 244 84 C243.67 82.68 243.34 81.36 243 80 C163.8 80 84.6 80 3 80 C3.99 83.96 4.98 87.92 6 92 C5.67 93.32 5.34 94.64 5 96 C4.5101645 94.52433205 4.0338408 93.04417897 3.5625 91.5625 C3.29566406 90.73878906 3.02882812 89.91507812 2.75390625 89.06640625 C1.78353054 85.11954131 1.44883823 81.03954405 1 77 C-7.58 77 -16.16 77 -25 77 C-25 73.7 -25 70.4 -25 67 C-17.08 66.67 -9.16 66.34 -1 66 C-1.33 63.36 -1.66 60.72 -2 58 C-2.08289596 56.42640526 -2.1369406 54.85065705 -2.14526367 53.27490234 C-2.15164352 52.43978119 -2.15802338 51.60466003 -2.16459656 50.74423218 C-2.16570938 49.86699493 -2.1668222 48.98975769 -2.16796875 48.0859375 C-2.17129715 47.15383453 -2.17462555 46.22173157 -2.17805481 45.26138306 C-2.18309362 43.29649342 -2.18546408 41.33159531 -2.18530273 39.36669922 C-2.18747835 36.40447379 -2.20563697 33.44262795 -2.22460938 30.48046875 C-2.25430027 20.1251992 -1.93244728 10.20638726 0 0 Z " fill="#F8E3D1" transform="translate(177,148)"/>
<path d="M0 0 C12.21364912 -0.49348077 12.21364912 -0.49348077 15.86328125 1.796875 C18.77445767 4.79852674 19 6.87021939 19 11 C18.2265625 12.0209375 18.2265625 12.0209375 17.4375 13.0625 C16.963125 13.701875 16.48875 14.34125 16 15 C16.82550685 18.6022117 18.2523322 21.75433123 20 25 C17.69 25 15.38 25 13 25 C11.58398438 22.31445312 11.58398438 22.31445312 10.16796875 19.62890625 C9.00980201 17.67732013 9.00980201 17.67732013 6 17 C6 19.64 6 22.28 6 25 C4.02 25 2.04 25 0 25 C0 16.75 0 8.5 0 0 Z " fill="#3C274A" transform="translate(271,236)"/>
<path d="M0 0 C12.17424988 -0.49188888 12.17424988 -0.49188888 15.8984375 1.7265625 C18 4 18 4 18.55859375 6.2890625 C18.51863281 7.05992187 18.47867187 7.83078125 18.4375 8.625 C18.41558594 9.40101563 18.39367187 10.17703125 18.37109375 10.9765625 C18 13 18 13 16 15 C16.2127322 16.8618034 16.2127322 16.8618034 17 19 C17.350625 20.0725 17.70125 21.145 18.0625 22.25 C18.5265625 23.61125 18.5265625 23.61125 19 25 C17.02 25 15.04 25 13 25 C11.58398438 22.31445312 11.58398438 22.31445312 10.16796875 19.62890625 C9.00980201 17.67732013 9.00980201 17.67732013 6 17 C6 19.64 6 22.28 6 25 C4.02 25 2.04 25 0 25 C0 16.75 0 8.5 0 0 Z " fill="#3A2549" transform="translate(359,236)"/>
<path d="M0 0 C5.28 0 10.56 0 16 0 C16 1.98 16 3.96 16 6 C12.37 6 8.74 6 5 6 C5 7.32 5 8.64 5 10 C8.3 10 11.6 10 15 10 C15 11.98 15 13.96 15 16 C11.7 16 8.4 16 5 16 C5 17.32 5 18.64 5 20 C8.63 20 12.26 20 16 20 C16 21.65 16 23.3 16 25 C10.72 25 5.44 25 0 25 C0 16.75 0 8.5 0 0 Z " fill="#3D284B" transform="translate(339,236)"/>
<path d="M0 0 C5.28 0 10.56 0 16 0 C16 1.98 16 3.96 16 6 C12.37 6 8.74 6 5 6 C5 7.32 5 8.64 5 10 C8.3 10 11.6 10 15 10 C15 11.65 15 13.3 15 15 C11.7 15 8.4 15 5 15 C5 16.65 5 18.3 5 20 C8.63 20 12.26 20 16 20 C16 21.65 16 23.3 16 25 C10.72 25 5.44 25 0 25 C0 16.75 0 8.5 0 0 Z " fill="#382347" transform="translate(294,236)"/>
<path d="M0 0 C1.98 0 3.96 0 6 0 C7.65 4.62 9.3 9.24 11 14 C12.76054874 9.35855331 14.46527032 4.72224516 16 0 C18.31 0 20.62 0 23 0 C20.56541729 8.41217604 17.79856214 16.70386716 15 25 C12.69 25 10.38 25 8 25 C1.48063781 8.29157175 1.48063781 8.29157175 0 0 Z " fill="#3C284B" transform="translate(313,236)"/>
<path d="M0 0 C5.28 0 10.56 0 16 0 C16 1.98 16 3.96 16 6 C12.7 6 9.4 6 6 6 C6 7.32 6 8.64 6 10 C8.97 10 11.94 10 15 10 C15 11.65 15 13.3 15 15 C11.7 15 8.4 15 5 15 C5 18.3 5 21.6 5 25 C3.35 25 1.7 25 0 25 C0 16.75 0 8.5 0 0 Z " fill="#3C274A" transform="translate(223,236)"/>
<path d="M0 0 C4.95 0 9.9 0 15 0 C15 1.65 15 3.3 15 5 C11.7 5 8.4 5 5 5 C5 6.65 5 8.3 5 10 C8.3 10 11.6 10 15 10 C15 11.65 15 13.3 15 15 C11.7 15 8.4 15 5 15 C5 17.97 5 20.94 5 24 C3.35 24 1.7 24 0 24 C0 16.08 0 8.16 0 0 Z " fill="#F7F6F7" transform="translate(293,177)"/>
<path d="M0 0 C0.33 0 0.66 0 1 0 C1.0501123 0.87100342 1.10022461 1.74200684 1.15185547 2.6394043 C1.34454576 5.93676767 1.54282147 9.23370424 1.74462891 12.53051758 C1.8301284 13.94510186 1.91353481 15.35981454 1.99462891 16.7746582 C2.52192386 25.94373151 3.4545064 34.93748861 5 44 C5.34722473 46.33164318 5.67422158 48.66525469 6 51 C4.35 51 2.7 51 1 51 C-2.20197344 43.42171457 -2.43235333 36.32079272 -2.33618164 28.19848633 C-2.31258413 26.0700883 -2.31563938 23.94294915 -2.32226562 21.81445312 C-2.30560554 14.34321984 -1.9055127 7.25011043 0 0 Z " fill="#FDF8EE" transform="translate(183,165)"/>
<path d="M0 0 C0.33 0 0.66 0 1 0 C2.84371561 9.05396061 3.24450181 17.97243759 3.3125 27.1875 C3.33860352 28.82501221 3.33860352 28.82501221 3.36523438 30.49560547 C3.36084092 37.77226416 2.27942955 44.09099125 0 51 C-1.65 51 -3.3 51 -5 51 C-4.566875 49.14375 -4.566875 49.14375 -4.125 47.25 C-1.05100938 31.74923877 -0.6008308 15.74809153 0 0 Z " fill="#FCF3F6" transform="translate(416,165)"/>
<path d="M0 0 C2.5 1.5625 2.5 1.5625 4 4 C4 7.77684879 3.78395245 10.03513544 1.375 13 C-2.04776185 14.44116288 -4.44605372 13.85557966 -8 13 C-10 11 -10 11 -10.3125 7.0625 C-10.23081662 4.56208106 -10.12109418 3.22794199 -8.9375 1 C-5.82090489 -0.60856522 -3.43737531 -0.42213381 0 0 Z " fill="#F6F3F3" transform="translate(258,242)"/>
<path d="M0 0 C0.495 1.485 0.495 1.485 1 3 C2.1281311 2.99214478 2.1281311 2.99214478 3.27905273 2.98413086 C6.66519342 2.96342773 10.05132084 2.95036123 13.4375 2.9375 C14.62150391 2.92912109 15.80550781 2.92074219 17.02539062 2.91210938 C18.15009766 2.90888672 19.27480469 2.90566406 20.43359375 2.90234375 C21.47572021 2.89710693 22.51784668 2.89187012 23.59155273 2.88647461 C26 3 26 3 27 4 C27.23728814 10.52542373 27.23728814 10.52542373 26 13 C17.42 13 8.84 13 0 13 C-0.33 15.31 -0.66 17.62 -1 20 C-1.495 18.02 -1.495 18.02 -2 16 C-27.74 16 -53.48 16 -80 16 C-80 15.67 -80 15.34 -80 15 C-54.26 15 -28.52 15 -2 15 C-2 14.01 -2 13.02 -2 12 C6.91 12 15.82 12 25 12 C25 9.36 25 6.72 25 4 C16.75 4 8.5 4 0 4 C0 2.68 0 1.36 0 0 Z " fill="#F6D5DA" transform="translate(422,212)"/>
<path d="M0 0 C2.44161618 3.08879155 4.34253734 6.30943652 6.25 9.75 C11.23927865 18.32239317 16.45244632 24.02248432 24.765625 29.45703125 C26.7609063 30.83489159 28.35909592 32.22590565 30 34 C27.7734375 35.1796875 27.7734375 35.1796875 25 36 C21.50936265 34.33485497 18.82303422 31.61825454 16 29 C15.38769531 28.44183594 14.77539062 27.88367188 14.14453125 27.30859375 C7.49529072 20.50719669 1.29462365 9.52473116 0 0 Z " fill="#F4EFEC" transform="translate(203,171)"/>
<path d="M0 0 C0.33 0.66 0.66 1.32 1 2 C-3.95596703 14.60571793 -11.20945675 27.16083895 -24 33 C-25.32 32.01 -26.64 31.02 -28 30 C-27.34773438 29.55269531 -26.69546875 29.10539062 -26.0234375 28.64453125 C-25.14945312 28.03996094 -24.27546875 27.43539062 -23.375 26.8125 C-22.51648438 26.22082031 -21.65796875 25.62914062 -20.7734375 25.01953125 C-15.31414416 21.044243 -11.03068186 17.15268565 -7.3125 11.5 C-6.93544922 10.94441406 -6.55839844 10.38882813 -6.16992188 9.81640625 C-4.00566537 6.60590358 -1.96150747 3.33767621 0 0 Z " fill="#F4EDEF" transform="translate(395,174)"/>
<path d="M0 0 C2.02838992 3.5859036 2.97011529 7.2752887 4 11.25 C4.17370117 11.91588135 4.34740234 12.5817627 4.52636719 13.26782227 C5.71465663 17.83760892 6.87684734 22.4137933 8 27 C6.35 27 4.7 27 3 27 C-0.92100683 18.17773464 -0.2754857 9.45834243 0 0 Z " fill="#FDF9F1" transform="translate(190,189)"/>
<path d="M0 0 C0.33 0 0.66 0 1 0 C1.57621951 19.84756098 1.57621951 19.84756098 -2 27 C-3.65 27 -5.3 27 -7 27 C-4.69 18.09 -2.38 9.18 0 0 Z " fill="#FDF4F6" transform="translate(409,189)"/>
<path d="M0 0 C2.77834684 1.38917342 2.99642986 2.95763553 4.125 5.8125 C4.47820312 6.68519531 4.83140625 7.55789063 5.1953125 8.45703125 C6 11 6 11 6 15 C6.66 15 7.32 15 8 15 C8 15.99 8 16.98 8 18 C-5.86 18 -19.72 18 -34 18 C-34 17.67 -34 17.34 -34 17 C-21.13 17 -8.26 17 5 17 C3.35 12.71 1.7 8.42 0 4 C0 2.68 0 1.36 0 0 Z " fill="#FDF7EE" transform="translate(187,257)"/>
<path d="M0 0 C0.66 0.33 1.32 0.66 2 1 C2 1.99 2 2.98 2 4 C0.92685547 4.32871094 0.92685547 4.32871094 -0.16796875 4.6640625 C-7.20837028 6.90460425 -13.761395 9.6468299 -20.3828125 12.92578125 C-21.67832031 13.45751953 -21.67832031 13.45751953 -23 14 C-23.66 13.67 -24.32 13.34 -25 13 C-6.95571956 2.63837638 -6.95571956 2.63837638 0 0 Z " fill="#FBEEE0" transform="translate(228,128)"/>
<path d="M0 0 C1.32 0.66 2.64 1.32 4 2 C4.125 4.875 4.125 4.875 4 8 C3.34 8.66 2.68 9.32 2 10 C-0.125 9.625 -0.125 9.625 -2 9 C-2.6875 6.1875 -2.6875 6.1875 -3 3 C-1.5625 1.125 -1.5625 1.125 0 0 Z " fill="#CEC9D2" transform="translate(323,293)"/>
<path d="M0 0 C1.96935692 2.95403539 3.21714268 5.72295053 4.5625 9 C5.21412109 10.5778125 5.21412109 10.5778125 5.87890625 12.1875 C6.64259544 14.10337532 7.34778842 16.04336526 8 18 C6.68 18 5.36 18 4 18 C-0.59225513 6.66287016 -0.59225513 6.66287016 0 0 Z " fill="#FAECD6" transform="translate(198,198)"/>
<path d="M0 0 C1.65 0 3.3 0 5 0 C4.67 4.29 4.34 8.58 4 13 C3.34 13 2.68 13 2 13 C1.66127487 11.58461283 1.32925376 10.16762037 1 8.75 C0.814375 7.96109375 0.62875 7.1721875 0.4375 6.359375 C0 4 0 4 0 0 Z " fill="#FDF5EE" transform="translate(230,283)"/>
<path d="M0 0 C1.65 0 3.3 0 5 0 C4.48041715 4.37934119 3.94324258 8.68803391 3 13 C2.34 13 1.68 13 1 13 C0.67 8.71 0.34 4.42 0 0 Z " fill="#FCF1F2" transform="translate(365,283)"/>
<path d="M0 0 C1.66611905 -0.042721 3.33382885 -0.04063832 5 0 C6 1 6 1 6.0625 3.5625 C6.041875 4.366875 6.02125 5.17125 6 6 C3.625 6.625 3.625 6.625 1 7 C0.34 6.34 -0.32 5.68 -1 5 C-0.625 2.375 -0.625 2.375 0 0 Z " fill="#E89153" transform="translate(252,246)"/>
<path d="M0 0 C1.2065625 0.0309375 1.2065625 0.0309375 2.4375 0.0625 C2.4375 0.7225 2.4375 1.3825 2.4375 2.0625 C1.1175 2.0625 -0.2025 2.0625 -1.5625 2.0625 C-1.5625 2.7225 -1.5625 3.3825 -1.5625 4.0625 C-0.5725 4.0625 0.4175 4.0625 1.4375 4.0625 C1.4375 4.7225 1.4375 5.3825 1.4375 6.0625 C0.4475 6.0625 -0.5425 6.0625 -1.5625 6.0625 C-1.5625 6.7225 -1.5625 7.3825 -1.5625 8.0625 C-0.2425 8.0625 1.0775 8.0625 2.4375 8.0625 C2.4375 8.7225 2.4375 9.3825 2.4375 10.0625 C0.77138095 10.105221 -0.89632885 10.10313832 -2.5625 10.0625 C-3.5625 9.0625 -3.5625 9.0625 -3.6953125 7.25 C-3.69273437 6.528125 -3.69015625 5.80625 -3.6875 5.0625 C-3.69007813 4.340625 -3.69265625 3.61875 -3.6953125 2.875 C-3.48140927 -0.04414996 -2.93781989 0.07165414 0 0 Z " fill="#C3BDC7" transform="translate(296.5625,292.9375)"/>
<path d="M0 0 C1.98 0 3.96 0 6 0 C6.38218767 1.65614657 6.71395102 3.32457024 7 5 C6 6 6 6 2.9375 6.0625 C1.4834375 6.0315625 1.4834375 6.0315625 0 6 C0 4.02 0 2.04 0 0 Z " fill="#F1EFF2" transform="translate(365,242)"/>
<path d="M0 0 C1.98 0 3.96 0 6 0 C6.38218767 1.65614657 6.71395102 3.32457024 7 5 C6 6 6 6 2.9375 6.0625 C1.4834375 6.0315625 1.4834375 6.0315625 0 6 C0 4.02 0 2.04 0 0 Z " fill="#F3F1F4" transform="translate(277,242)"/>
<path d="M0 0 C1.56393356 3.97376829 0.36145292 6.81377903 -0.9375 10.75 C-1.31777344 11.92046875 -1.69804687 13.0909375 -2.08984375 14.296875 C-2.39019531 15.18890625 -2.69054687 16.0809375 -3 17 C-4.32 16.67 -5.64 16.34 -7 16 C-6.66226562 15.26394531 -6.32453125 14.52789062 -5.9765625 13.76953125 C-5.53054688 12.79371094 -5.08453125 11.81789062 -4.625 10.8125 C-4.18414062 9.84957031 -3.74328125 8.88664063 -3.2890625 7.89453125 C-2.12678149 5.28468208 -1.04075219 2.66024041 0 0 Z " fill="#FAE7EC" transform="translate(401,199)"/>
<path d="M0 0 C3.16115776 1.36983503 3.9927092 1.9890638 6 5 C6.33 3.35 6.66 1.7 7 0 C7.33 0 7.66 0 8 0 C8 2.64 8 5.28 8 8 C4.125 6.25 4.125 6.25 3 4 C2.67 5.32 2.34 6.64 2 8 C1.34 8 0.68 8 0 8 C0 5.36 0 2.72 0 0 Z " fill="#DEDBE1" transform="translate(269,294)"/>
<path d="M0 0 C0.99 0.33 1.98 0.66 3 1 C2.01 1.33 1.02 1.66 0 2 C0 2.66 0 3.32 0 4 C1.32 4.33 2.64 4.66 4 5 C3.67 6.32 3.34 7.64 3 9 C1.68 9.33 0.36 9.66 -1 10 C-1.33 9.01 -1.66 8.02 -2 7 C-0.68 7.33 0.64 7.66 2 8 C0.68 6.68 -0.64 5.36 -2 4 C-1.34 2.68 -0.68 1.36 0 0 Z " fill="#C9C4CD" transform="translate(253,293)"/>
<path d="M0 0 C0.66 0 1.32 0 2 0 C3.125 5.75 3.125 5.75 2 8 C1.34 8 0.68 8 0 8 C0 7.34 0 6.68 0 6 C-1.32 6 -2.64 6 -4 6 C-2.84826645 3.53199953 -1.95216435 1.95216435 0 0 Z " fill="#D5D1D9" transform="translate(346,294)"/>
<path d="M0 0 C1.95216435 3.90432869 2.50639991 6.72213252 3 11 C2.34 11 1.68 11 1 11 C1 13.31 1 15.62 1 18 C0.67 18 0.34 18 0 18 C0 12.06 0 6.12 0 0 Z " fill="#FAEBD0" transform="translate(190,189)"/>
<path d="M0 0 C1.65 0.33 3.3 0.66 5 1 C4.125 4.875 4.125 4.875 3 6 C3.66 6.33 4.32 6.66 5 7 C5 7.66 5 8.32 5 9 C3.02 9 1.04 9 -1 9 C0.33333333 6.33333333 1.66666667 3.66666667 3 1 C2.01 0.67 1.02 0.34 0 0 Z " fill="#D0CBD4" transform="translate(311,294)"/>
<path d="M0 0 C-3.74114033 3.2531655 -8.31315138 5.44374911 -13 7 C-13.66 6.67 -14.32 6.34 -15 6 C-13.07010782 4.80017556 -11.13080772 3.61547182 -9.1875 2.4375 C-8.10855469 1.77621094 -7.02960938 1.11492187 -5.91796875 0.43359375 C-3 -1 -3 -1 0 0 Z " fill="#FAE9D2" transform="translate(218,135)"/>
<path d="M0 0 C1.65 0.33 3.3 0.66 5 1 C4.835 1.5775 4.67 2.155 4.5 2.75 C3.85537969 5.26664369 3.85537969 5.26664369 4 9 C2.35 9 0.7 9 -1 9 C0.33333333 6.33333333 1.66666667 3.66666667 3 1 C2.01 0.67 1.02 0.34 0 0 Z " fill="#D4CFD7" transform="translate(333,294)"/>
<path d="M0 0 C1.65 0 3.3 0 5 0 C3.02 4.455 3.02 4.455 1 9 C0.67 9 0.34 9 0 9 C0 6.03 0 3.06 0 0 Z " fill="#FDF8F9" transform="translate(374,283)"/>
<path d="M0 0 C1.65 0 3.3 0 5 0 C5 2.97 5 5.94 5 9 C2.38952199 7.694761 2.31933577 6.64173426 1.375 3.9375 C1.11460937 3.20402344 0.85421875 2.47054688 0.5859375 1.71484375 C0.39257812 1.14894531 0.19921875 0.58304687 0 0 Z " fill="#FEFBF8" transform="translate(221,283)"/>
<path d="M0 0 C2.33364352 2.92903058 4.04960836 5.88568203 5.6875 9.25 C6.12449219 10.14203125 6.56148437 11.0340625 7.01171875 11.953125 C7.33785156 12.62859375 7.66398438 13.3040625 8 14 C7.01 14 6.02 14 5 14 C4.15973604 12.23244474 3.32801278 10.46082737 2.5 8.6875 C2.0359375 7.70136719 1.571875 6.71523437 1.09375 5.69921875 C0 3 0 3 0 0 Z " fill="#D5C9C5" transform="translate(203,171)"/>
<path d="M0 0 C3.91939465 3.80411834 7.49102731 7.81576108 11 12 C10.01 12 9.02 12 8 12 C5.95703125 9.8828125 5.95703125 9.8828125 3.8125 7.125 C3.09707031 6.22007812 2.38164062 5.31515625 1.64453125 4.3828125 C0 2 0 2 0 0 Z " fill="#F6D7B4" transform="translate(219,298)"/>
<path d="M0 0 C0.99 0 1.98 0 3 0 C3 3.3 3 6.6 3 10 C2.01 10 1.02 10 0 10 C0 6.7 0 3.4 0 0 Z " fill="#BEB7C3" transform="translate(262,293)"/>
<path d="M0 0 C2.91488977 2.6234008 4.88503898 5.71816394 7 9 C4.625 8.75 4.625 8.75 2 8 C-0.09862498 5.10189884 0 3.71621139 0 0 Z " fill="#FBEFDE" transform="translate(207,207)"/>
<path d="M0 0 C0.33 0 0.66 0 1 0 C1 4.29 1 8.58 1 13 C0.01 12.67 -0.98 12.34 -2 12 C-1 3.42857143 -1 3.42857143 0 0 Z " fill="#FAE7EC" transform="translate(409,189)"/>
<path d="M0 0 C4.97209562 1.76429199 9.43438061 4.3939166 14 7 C13.01 7.495 13.01 7.495 12 8 C9.75689987 7.10333658 7.55245679 6.10853317 5.375 5.0625 C4.18648438 4.49660156 2.99796875 3.93070313 1.7734375 3.34765625 C0.85820312 2.90292969 -0.05703125 2.45820313 -1 2 C-0.67 1.34 -0.34 0.68 0 0 Z " fill="#F8DAE0" transform="translate(383,134)"/>
<path d="M0 0 C1 3 1 3 -0.4375 6.1875 C-1.2109375 7.5796875 -1.2109375 7.5796875 -2 9 C-3.32 8.67 -4.64 8.34 -6 8 C-4.02 5.36 -2.04 2.72 0 0 Z " fill="#FAE6EA" transform="translate(392,207)"/>
<path d="M0 0 C0 4.38968456 -2.12805101 5.76905739 -5 9 C-5.99 8.67 -6.98 8.34 -8 8 C-5.36 5.36 -2.72 2.72 0 0 Z " fill="#F7D2D6" transform="translate(376,303)"/>
<path d="M0 0 C0.99 0.33 1.98 0.66 3 1 C2.67 2.65 2.34 4.3 2 6 C1.01 5.67 0.02 5.34 -1 5 C-0.67 3.35 -0.34 1.7 0 0 Z " fill="#422E50" transform="translate(323,295)"/>
<path d="M0 0 C0.33 0.66 0.66 1.32 1 2 C0.22265625 4.1640625 0.22265625 4.1640625 -0.9375 6.625 C-1.31777344 7.44226563 -1.69804687 8.25953125 -2.08984375 9.1015625 C-2.39019531 9.72804687 -2.69054687 10.35453125 -3 11 C-3.66 10.67 -4.32 10.34 -5 10 C-3.66511872 6.40608886 -2.03977277 3.24509304 0 0 Z " fill="#E2D1D8" transform="translate(395,174)"/>
</svg>
